<?xml version="1.0" standalone="no"?>
<!DOCTYPE svg PUBLIC "-//W3C//DTD SVG 20010904//EN"
 "http://www.w3.org/TR/2001/REC-SVG-20010904/DTD/svg10.dtd">
<svg version="1.0" xmlns="http://www.w3.org/2000/svg"
 width="200.000000pt" height="200.000000pt" viewBox="0 0 200.000000 200.000000"
 preserveAspectRatio="xMidYMid meet">

<g transform="translate(0.000000,200.000000) scale(0.100000,-0.100000)"
fill="#000000" stroke="none">
<path d="M785 1876 c-313 -72 -558 -303 -646 -608 -32 -111 -36 -277 -11 -401
39 -187 155 -375 304 -492 257 -203 615 -242 901 -99 212 107 361 276 438 502
33 95 34 101 33 262 0 159 -1 169 -32 260 -45 137 -109 239 -211 341 -103 103
-206 166 -341 211 -84 27 -111 31 -235 34 -95 3 -159 -1 -200 -10z m-102 -468
c33 -76 63 -135 66 -132 3 3 31 64 63 137 l57 132 58 3 58 3 0 -321 0 -320
-60 0 -60 0 3 192 c2 106 2 191 -1 188 -3 -3 -23 -48 -45 -100 -37 -87 -43
-95 -69 -98 -37 -4 -41 2 -89 118 -38 94 -39 94 -42 55 -2 -22 -2 -111 0 -198
l3 -158 -60 3 c-54 3 -60 5 -55 23 3 11 5 154 5 318 l0 298 54 -3 54 -3 60
-137z m494 127 c-6 -15 52 -225 62 -225 9 0 66 202 64 223 -2 15 7 17 73 17
l76 0 -14 -22 c-8 -13 -46 -110 -83 -216 l-68 -193 5 -104 5 -105 -57 0 -56 0
4 108 3 107 -66 185 c-36 102 -73 195 -81 207 -7 12 -14 25 -14 28 0 3 34 5
76 5 62 0 75 -3 71 -15z m-584 -757 l34 -73 33 73 c30 67 35 72 64 72 l31 0 0
-170 0 -170 -33 0 -33 0 3 100 c2 55 2 100 1 100 -1 0 -12 -22 -24 -50 -17
-40 -26 -50 -45 -50 -13 0 -24 6 -25 13 0 6 -9 30 -19 52 l-19 40 2 -103 2
-102 -32 0 -33 0 0 170 0 170 30 0 c27 0 32 -6 63 -72z m377 42 c0 -30 -1 -30
-55 -30 l-55 0 0 -41 c0 -39 2 -41 25 -37 23 5 25 2 25 -28 0 -30 -3 -34 -25
-34 -22 0 -25 -4 -25 -40 l0 -40 56 0 c54 0 55 0 52 -27 -3 -28 -4 -28 -88
-31 l-85 -3 0 171 0 170 88 0 87 0 0 -30z m130 -65 l35 -89 3 92 3 92 32 0 32
0 0 -170 0 -170 -31 0 c-31 0 -33 3 -69 93 -20 50 -39 94 -42 97 -2 3 -3 -39
-1 -93 l3 -97 -32 0 -33 0 0 171 0 170 32 -3 c31 -3 34 -8 68 -93z m210 -45
l0 -140 25 0 25 0 0 140 0 140 33 0 32 0 -3 -157 c-2 -93 -7 -162 -14 -170
-14 -17 -132 -17 -146 0 -7 8 -12 77 -14 170 l-3 157 33 0 32 0 0 -140z"/>
</g>
</svg>
