<?xml version="1.0" standalone="no"?>
<!DOCTYPE svg PUBLIC "-//W3C//DTD SVG 20010904//EN"
 "http://www.w3.org/TR/2001/REC-SVG-20010904/DTD/svg10.dtd">
<svg version="1.0" xmlns="http://www.w3.org/2000/svg"
 width="341.000000pt" height="311.000000pt" viewBox="0 0 341.000000 311.000000"
 preserveAspectRatio="xMidYMid meet">

<g transform="translate(0.000000,311.000000) scale(0.100000,-0.100000)"
fill="#000000" stroke="none">
<path d="M1255 2516 c-38 -17 -90 -72 -104 -109 -7 -18 -11 -171 -11 -430 0
-398 1 -402 23 -442 12 -21 42 -53 65 -70 l44 -30 400 -3 401 -3 52 26 c34 16
63 40 81 67 l29 41 3 396 c2 265 0 408 -8 433 -14 48 -53 94 -101 118 -36 19
-61 20 -441 20 -315 -1 -410 -4 -433 -14z m371 -410 c32 -90 61 -162 63 -160
2 2 30 74 61 161 l58 158 121 3 121 3 0 -56 c0 -52 -1 -55 -25 -55 l-25 0 0
-180 0 -180 25 0 c24 0 25 -3 25 -55 l0 -56 -112 3 -113 3 -3 53 c-3 50 -2 52
22 52 l26 0 0 163 -1 162 -63 -175 -63 -175 -54 -3 -54 -3 -49 138 c-80 223
-75 220 -76 46 l0 -153 26 0 c24 0 25 -2 22 -52 l-3 -53 -115 0 -115 0 -3 53
-3 52 30 0 31 0 0 179 0 180 -27 3 c-26 3 -28 7 -31 56 l-3 52 124 0 123 0 60
-164z"/>
<path d="M250 1267 c0 -32 22 -77 38 -77 10 0 12 -28 10 -122 -3 -119 -4 -123
-25 -126 -19 -3 -23 -10 -23 -38 0 -19 5 -34 10 -34 6 0 10 -7 10 -15 0 -12
17 -15 90 -15 l90 0 0 44 c0 35 -4 45 -20 49 -18 5 -20 14 -20 96 0 50 2 91 4
91 2 0 14 -28 26 -62 13 -35 32 -85 43 -111 l20 -48 45 3 44 3 34 94 c19 52
37 97 39 100 3 2 5 -31 5 -73 0 -69 -2 -78 -20 -83 -15 -4 -20 -14 -20 -39 0
-19 5 -34 10 -34 6 0 10 -7 10 -15 0 -13 14 -15 88 -13 l87 3 3 38 c3 29 -1
39 -15 44 -30 11 -33 23 -33 145 0 113 1 117 23 120 18 2 23 10 25 41 3 32 0
38 -24 47 -15 6 -63 9 -107 8 l-80 -3 -39 -105 c-22 -58 -41 -106 -42 -108 -2
-1 -20 45 -41 102 -44 119 -39 116 -162 116 -80 0 -83 -1 -83 -23z m240 -112
c22 -59 38 -110 35 -113 -2 -3 -7 1 -10 9 -46 127 -75 211 -75 216 0 17 13
-13 50 -112z m328 74 c-2 -16 -11 -25 -25 -27 -23 -3 -23 -6 -23 -133 0 -79
-4 -129 -10 -129 -6 0 -10 54 -10 141 0 130 1 141 19 146 11 3 22 14 25 26 7
29 29 8 24 -24z m-518 -13 c0 -3 -4 -8 -10 -11 -5 -3 -10 -1 -10 4 0 6 5 11
10 11 6 0 10 -2 10 -4z m100 -152 c0 -76 -4 -124 -10 -124 -6 0 -10 50 -10
131 0 84 4 128 10 124 6 -4 10 -58 10 -131z m237 0 c-57 -162 -52 -154 -92
-154 -19 0 -35 5 -35 10 0 6 11 10 24 10 13 0 27 8 31 18 4 9 24 66 46 126 45
125 53 140 57 110 2 -11 -13 -65 -31 -120z m-197 -179 l0 -35 -80 0 c-47 0
-80 4 -80 10 0 6 30 10 70 10 68 0 70 1 70 25 0 14 5 25 10 25 6 0 10 -16 10
-35z m378 -6 c-3 -23 -8 -24 -80 -27 -49 -2 -78 1 -78 8 0 6 27 10 65 10 56 0
65 2 65 18 0 10 3 22 7 26 11 11 25 -10 21 -35z"/>
<path d="M1420 1271 c0 -40 13 -81 26 -81 11 0 14 -26 14 -125 0 -118 -1 -125
-20 -125 -21 0 -26 -30 -14 -77 6 -22 11 -23 95 -23 l89 0 0 45 c0 32 -4 45
-14 45 -8 0 -17 7 -20 16 -9 24 -7 179 2 169 5 -6 19 -39 32 -75 49 -141 49
-141 99 -138 l45 3 34 95 c18 52 35 96 38 99 2 2 4 -32 4 -77 0 -75 -2 -82
-20 -82 -16 0 -20 -7 -20 -35 0 -19 5 -35 10 -35 6 0 10 -7 10 -15 0 -12 17
-15 90 -15 l90 0 0 44 c0 35 -4 45 -20 49 -19 5 -20 14 -20 131 0 119 1 126
20 126 17 0 20 7 20 45 0 42 -2 44 -32 50 -18 3 -66 5 -107 3 l-73 -3 -33 -90
c-18 -49 -40 -105 -48 -124 l-14 -33 -38 103 c-51 140 -50 136 -38 124 6 -5
25 -52 43 -103 18 -51 35 -90 37 -88 3 2 -12 49 -32 104 -42 114 -38 112 -157
112 -70 0 -78 -2 -78 -19z m560 -36 c0 -28 -4 -35 -20 -35 -18 0 -20 -8 -22
-125 -4 -175 -23 -165 -23 13 0 134 0 137 23 140 14 2 22 10 22 23 0 10 5 19
10 19 6 0 10 -16 10 -35z m-520 -25 c0 -5 -4 -10 -10 -10 -5 0 -10 5 -10 10 0
6 5 10 10 10 6 0 10 -4 10 -10z m100 -146 c0 -76 -4 -124 -10 -124 -6 0 -10
50 -10 131 0 84 4 128 10 124 6 -4 10 -58 10 -131z m228 -30 l-43 -124 -37 0
c-43 0 -52 17 -12 22 24 3 31 14 70 123 58 158 57 155 62 126 2 -13 -16 -79
-40 -147z m-188 -149 l0 -35 -80 0 c-47 0 -80 4 -80 10 0 6 30 10 70 10 68 0
70 1 70 25 0 14 5 25 10 25 6 0 10 -16 10 -35z m380 0 l0 -35 -80 0 c-47 0
-80 4 -80 10 0 6 30 10 70 10 68 0 70 1 70 25 0 14 5 25 10 25 6 0 10 -16 10
-35z"/>
<path d="M2090 1189 c-99 -40 -128 -169 -60 -271 l29 -44 71 -2 c82 -3 164 25
154 52 -3 9 -2 16 4 16 5 0 12 -12 15 -26 7 -36 -30 -56 -117 -64 l-71 -7 59
-2 c71 -1 150 30 142 58 -2 9 -7 26 -11 39 -3 12 -13 22 -21 22 -29 0 -13 19
19 22 26 2 32 8 34 28 1 22 1 22 -4 3 -4 -22 -8 -23 -119 -23 -84 0 -114 -3
-114 -12 0 -14 -20 11 -20 25 0 4 50 7 111 7 l111 0 -4 55 c-3 57 9 60 22 3 7
-29 8 -30 9 -7 3 88 -143 166 -239 128z m116 -70 c3 -5 -11 -9 -30 -9 -35 0
-43 -5 -71 -45 -17 -25 -29 -14 -21 20 11 42 101 67 122 34z m23 -38 c6 -10 7
-21 4 -25 -10 -10 -113 -7 -113 3 0 39 91 57 109 22z m12 -121 c-37 -32 -121
-23 -121 12 0 4 33 8 73 8 l72 -1 -24 -19z"/>
<path d="M2502 1192 c-7 -5 -49 -7 -92 -4 -74 4 -80 3 -80 -15 0 -28 23 -73
38 -73 10 0 12 -20 10 -82 -3 -77 -5 -83 -25 -86 -18 -3 -23 -10 -23 -33 0
-16 5 -29 10 -29 6 0 10 -7 10 -15 0 -12 17 -15 90 -15 l90 0 0 39 c0 30 -4
40 -20 44 -18 5 -20 14 -20 75 0 64 2 72 26 91 19 15 22 21 11 21 -30 0 -47
-41 -47 -112 0 -39 -4 -68 -10 -68 -6 0 -10 34 -10 83 0 69 3 87 18 100 24 21
87 23 79 3 -3 -8 1 -17 9 -20 11 -4 14 -29 14 -116 0 -67 4 -110 10 -110 6 0
10 -7 10 -15 0 -12 14 -15 70 -15 l70 0 0 39 c0 30 -4 40 -20 44 -18 5 -20 14
-20 79 -1 100 -23 148 -82 177 -46 22 -93 27 -116 13z m178 -100 c13 -48 13
-162 0 -162 -6 0 -10 28 -10 63 -1 34 -5 81 -9 104 -10 51 4 47 19 -5z m-160
-218 c0 -23 -2 -24 -80 -24 -47 0 -80 4 -80 10 0 6 30 10 70 10 64 0 70 2 70
21 0 11 5 17 10 14 6 -3 10 -17 10 -31z m210 0 c0 -23 -3 -24 -60 -24 -33 0
-60 4 -60 10 0 6 23 10 50 10 44 0 50 3 50 21 0 11 5 17 10 14 6 -3 10 -17 10
-31z"/>
<path d="M830 1168 c0 -13 7 -31 14 -41 14 -18 14 -18 19 0 5 22 13 5 72 -152
27 -73 46 -109 55 -107 10 2 10 -2 -2 -20 -12 -18 -24 -23 -51 -21 -31 2 -35
-1 -40 -25 -3 -15 -1 -28 4 -30 5 -2 9 -10 9 -17 0 -17 23 -25 75 -25 70 0 92
30 155 205 29 83 58 156 63 163 6 8 6 12 -1 12 -5 0 -36 -72 -67 -161 -67
-184 -86 -209 -160 -209 -24 0 -47 5 -50 10 -4 6 10 10 35 10 65 0 87 30 150
205 59 165 64 175 91 175 11 0 19 7 19 15 0 29 19 15 23 -17 l4 -33 1 36 c2
44 -9 49 -115 49 -80 0 -86 -6 -63 -65 8 -21 6 -40 -12 -88 l-22 -61 -20 64
c-22 70 -24 75 -30 69 -2 -2 6 -38 19 -79 14 -41 22 -76 20 -79 -5 -4 -6 -3
-40 98 l-25 74 24 24 25 24 4 -33 4 -33 1 36 c2 44 -9 49 -115 49 -69 0 -73
-1 -73 -22z"/>
<path d="M2733 1153 c4 -21 13 -43 22 -49 11 -8 15 -30 15 -79 0 -82 27 -148
71 -170 33 -17 102 -20 130 -5 13 7 19 7 19 0 0 -6 28 -10 70 -10 l70 0 0 39
c0 30 -4 40 -20 44 -19 5 -20 14 -20 130 0 142 4 137 -97 137 -48 0 -53 -2
-53 -22 0 -39 12 -68 26 -68 10 0 14 -15 14 -57 0 -63 -18 -96 -57 -107 -34
-10 -43 20 -43 137 0 120 3 117 -99 117 l-54 0 6 -37z m139 -93 c2 -90 1 -107
-9 -93 -15 20 -18 203 -4 203 6 0 11 -50 13 -110z m208 -10 c0 -73 -4 -120
-10 -120 -6 0 -10 47 -10 120 0 73 4 120 10 120 6 0 10 -47 10 -120z m-100
-163 c0 -7 -5 -18 -12 -25 -14 -14 -97 -16 -118 -2 -11 7 -5 10 25 10 22 0 51
7 65 15 31 18 40 18 40 2z m140 -12 c0 -24 -3 -25 -54 -25 -30 0 -58 5 -61 10
-4 6 13 10 44 10 39 0 51 4 51 15 0 8 5 15 10 15 6 0 10 -11 10 -25z"/>
<path d="M2085 860 c3 -5 11 -10 16 -10 6 0 7 5 4 10 -3 6 -11 10 -16 10 -6 0
-7 -4 -4 -10z"/>
</g>
</svg>
